# xmcd CD database file
#
# Track frame offsets:
#	150
#	17399
#	35498
#
# Disc length: 700 seconds
#
# Revision: 0
# Processed by: cddbd v1.5.1PL0 Copyright (c) Steve Scherf et al.
# Submitted via: CDex 1.51
#
DISCID=1602ba03
DTITLE=完全メイド宣言 - メイディングストーリー -maiding story-
DYEAR=2005
DGENRE=Pop
TTITLE0=メイディング ストーリー
TTITLE1=ぉ帰りなさいませ！ご主人様っ
TTITLE2=メイディング ストーリ−(カラオケ)
EXTD=YEAR: 2005
EXTT0=
EXTT1=
EXTT2=
PLAYORDER=
